<?xml version="1.0" standalone="no"?>
<!DOCTYPE svg PUBLIC "-//W3C//DTD SVG 20010904//EN"
 "http://www.w3.org/TR/2001/REC-SVG-20010904/DTD/svg10.dtd">
<svg version="1.0" xmlns="http://www.w3.org/2000/svg"
 width="474.000000pt" height="465.000000pt" viewBox="0 0 474.000000 465.000000"
 preserveAspectRatio="xMidYMid meet">
<metadata>
Created by potrace 1.16, written by Peter Selinger 2001-2019
</metadata>
<g transform="translate(0.000000,465.000000) scale(0.100000,-0.100000)"
fill="#000000" stroke="none">
<path d="M0 2325 l0 -2325 2370 0 2370 0 0 2325 0 2325 -2370 0 -2370 0 0
-2325z m2487 2210 c242 -57 474 -268 647 -588 47 -85 49 -87 79 -82 294 49
551 51 744 5 232 -55 395 -190 459 -380 28 -84 24 -258 -9 -370 -36 -121 -89
-239 -159 -356 -77 -128 -188 -278 -210 -282 -9 -2 -24 8 -33 22 -17 26 -16
27 48 113 330 446 391 831 163 1041 -270 248 -900 227 -1651 -57 -113 -43
-159 -47 -184 -17 -15 18 -19 16 146 80 148 57 283 101 450 146 57 15 107 31
111 35 9 9 -44 105 -117 215 -68 103 -244 282 -323 328 -31 18 -89 45 -130 60
-62 22 -89 26 -178 25 -87 0 -117 -4 -172 -25 -210 -79 -398 -268 -553 -555
-23 -43 -33 -53 -54 -53 -57 0 -59 14 -17 92 138 257 323 455 515 552 121 62
296 82 428 51z m-1072 -745 c970 -135 2233 -881 2820 -1665 206 -276 305 -509
305 -719 0 -110 -14 -170 -58 -241 -156 -255 -577 -329 -1162 -204 -411 87
-915 292 -1345 547 -688 408 -1236 925 -1465 1382 -200 400 -150 691 144 834
113 55 203 76 354 85 155 8 239 4 407 -19z m-690 -1361 c5 -15 -1 -30 -22 -54
-141 -164 -205 -246 -268 -340 -178 -269 -260 -520 -226 -700 58 -311 371
-451 906 -404 295 25 662 127 1052 290 102 43 103 43 138 26 19 -9 35 -20 35
-25 0 -9 -196 -93 -350 -151 -104 -38 -281 -95 -393 -127 -69 -19 -69 -12 6
-158 202 -396 462 -609 742 -609 97 0 158 14 246 58 192 97 373 302 509 579
42 87 55 106 74 106 12 0 30 -6 40 -13 16 -12 12 -23 -52 -149 -126 -246 -269
-421 -437 -533 -145 -95 -268 -131 -420 -122 -241 15 -461 163 -656 442 -47
67 -130 215 -165 293 l-28 64 -40 -5 c-23 -2 -104 -14 -181 -26 -322 -51 -631
-20 -827 81 -182 94 -272 231 -285 433 -18 280 147 618 488 1006 60 67 73 78
89 69 10 -5 22 -19 25 -31z"/>
<path d="M2272 2783 c-40 -113 -46 -140 -34 -170 16 -42 22 -77 31 -203 9
-126 5 -180 -13 -180 -7 0 -130 56 -275 126 -145 69 -270 124 -280 122 -14 -3
-16 -31 -19 -265 -3 -311 -13 -288 148 -356 374 -159 443 -187 469 -187 44 0
571 226 599 256 22 25 22 27 20 287 l-3 262 -55 27 c-63 31 -87 33 -115 12
-20 -15 -20 -16 -1 -29 10 -8 24 -16 30 -18 21 -8 -8 -26 -113 -66 -96 -38
-180 -90 -227 -142 l-19 -21 43 7 c36 6 46 4 58 -12 13 -17 14 -16 8 8 -5 25
-1 28 81 63 69 30 89 35 101 25 11 -9 14 -8 14 5 0 21 107 73 121 59 5 -5 8
-81 7 -174 -2 -132 -6 -163 -17 -161 -10 2 -11 -4 -6 -25 21 -73 20 -73 -110
-130 -66 -29 -126 -52 -133 -52 -7 -1 -15 7 -18 17 -6 17 -13 36 -33 86 -7 16
-14 27 -16 24 -3 -2 6 -33 20 -68 14 -35 22 -67 17 -72 -9 -9 -204 -89 -208
-85 -2 1 -4 176 -5 387 -3 343 -1 392 15 445 l17 60 -31 84 c-45 122 -44 121
-68 54z m-252 -488 l240 -100 0 -222 c0 -123 -3 -223 -6 -223 -3 0 -106 43
-230 95 -124 52 -229 95 -234 95 -5 0 -16 7 -24 16 -14 13 -16 47 -16 214 0
194 4 234 21 228 5 -2 117 -48 249 -103z"/>
</g>
</svg>
